<?xml version="1.0" encoding="UTF-8"?>
<svg id="Calque_1" xmlns="http://www.w3.org/2000/svg" version="1.1" viewBox="0 0 221 221">
  <!-- Generator: Adobe Illustrator 29.1.0, SVG Export Plug-In . SVG Version: 2.1.0 Build 142)  -->
  <defs>
    <style>
      .st0 {
        fill: #2ba98d;
        fill-rule: evenodd;
      }
    </style>
  </defs>
  <path class="st0" d="M107,15.9c-42.4,1.2-83.1,31.5-98.1,73.2-4.7,13-6.3,22.3-6.3,36.4,0,11.2,0,12.3,2,22.2,1.7,8.4,7.8,26.8,9.6,28.6.5.5,17,1.1,23.5.9,13.6-.5,23.9-2.4,50.1-9.2,1.3-.4,5.9-1.4,10.2-2.4,15.4-3.4,7.9-26.9-9.4-29.6-2.8-.4-4.4-.2-10.4,1.4-8.3,2.2-14.4-.2-8.1-3.3,5.7-2.8,14.7-3.5,21.3-1.8,5.2,1.4-1.3-7.7-8.3-11.6-3.4-1.9-4.3-2.7-3.8-3.5.5-.8,2.4-.4,5.7,1.4,5.1,2.6,5.2,1.8.9-4.9-1.8-2.7-4.2-5.6-7.2-8.5-3.1-3.1-4.5-4.6-4.4-5.1,1.3-3.4,13.9,10.2,18.9,20.5,4.6,9.4,9,15.6,13.6,18.9,3.4,2.4,3.5,2.3,4.1-3.2,1.1-10.9-.9-19.1-7-29.2-2.2-3.6-2.6-4.7-1.7-5.2.6-.4,1.8.8,4.6,4.7,1.4,1.9,2.5,3.4,2.6,3.3s.6-2.1,1.1-4.4c4-18.6,4.3-21.4,3.2-28.1-1.3-8.1-1.2-7.4-.2-7.4,3.2,0,3.9,15.3,1.4,28.3-2.4,12.3-2,27.9.8,27.4,2.1-.4,6.5-10.9,5.7-13.6-2.1-7-.7-20.3,2.1-20.3s4.4,12.3,2.1,19.6c-1.9,6.1-1,6.9,3,2.6,4.7-4.9,7.1-11.9,8.7-24.9.5-3.9.9-8.1,1.1-9.1.2-1.9,1.1-2.8,1.9-2,.4.4,0,9.4-.9,16.9-.9,7.6,1.3,6.6,11-5.1.7-.9,1.2-1.1,1.8-.9,1.8.6,1.6.9-16.6,22.7-2.4,2.9-4.3,5.4-4.1,5.4,1.4,0,14-2.8,16.6-3.8,6.3-2.2,11.8-5.9,15.3-10.4,2-2.6,3.4-3.1,3.4-1.2,0,4.8-11.9,12.6-24.4,15.9-19.9,5.3-26.3,13.6-27.6,36.7-.4,6.9.5,7.9,5.9,6.8,14.2-3.1,38.1-3.1,53.8,0,10.2,2,28,8.4,32,11.4.8.6,1.5,1.1,1.6.9,2.3-2.4,7.8-21.4,9.4-32.3,9.6-65.4-44.6-126.7-110.4-124.8h0ZM36.8,83.4c6.2-2.9,29.9,5.9,28.1,10.4-1.2,3.1-13.4,2.7-19.9-.6-7.2-3.7-11.2-8.5-8.2-9.9h0ZM38.8,119.5c-7.2-3.6-8.9-6.6-4.4-7.9,6-1.7,20.5,2.1,24.5,6.6,3.9,4.2-12.4,5.2-20.2,1.3h0ZM75.4,125.8c-5.4,4.7-16.4,8-20.9,6.2-4.1-1.6,4.7-7.9,13.4-9.8,8.1-1.6,11.6,0,7.4,3.6ZM75.1,113.7c1.2,3.1-3.4,3.8-10.2,1.6-7.9-2.5-17.6-10.7-15.6-13.1,3.3-3.9,23.1,4.9,25.8,11.5ZM73.3,95.1c-5.8-2.6-15.1-24.2-12.1-27.8,1.8-2.2,7.4,4,11.4,12.7,3.6,7.9,4.1,16.8.7,15.2h0ZM78.6,77.3c-4-5.8-7-19.6-4.9-22.2,3.1-3.7,10.7,10.7,10.6,20,0,7.5-1.7,8.1-5.8,2.2h0ZM94.1,108.9c-4.6-4.4-8.6-19.5-6.1-23.4.9-1.5,3.8,1.2,6.1,5.9,4.4,8.6,4.4,21.6,0,17.5h0ZM103.6,97c-4.6-5.1-7.9-20.4-5.4-25.2,1.2-2.2,3.2-.5,6.1,5.2,4.4,8.9,3.9,25.1-.6,20h0ZM91.8,57.7c-4.1-3.7-7.1-8.9-6.1-10.2,3.1-3.8,24.8,11.4,24.8,17.4s-12.1-1.3-18.7-7.2h0ZM113,61.6c-5-7.3-8.9-22-6.5-24.8,3.1-3.8,10.6,11.5,10.6,21.8,0,7.1-.9,7.7-4.1,2.9ZM131.6,75.5c-.7,10.2-3.8,11-6.4,1.9-1.2-4.2-1.5-16.1-.5-18.3,2.4-5.3,7.6,6.9,6.9,16.5h0ZM144.1,68.1c-3.4,7.3-5.6,6.1-6.1-3.6-.3-7.3,1.3-14.3,4.3-18.4,5.2-7.1,6.7,11.5,1.8,22ZM148.1,79.9c-2.9-1.1,3.2-15.2,8.6-19.8s6.1-.2,1.7,9.2c-2.6,5.4-8.4,11.3-10.3,10.6ZM159.1,101.7c-3.9,5.4-8.6,8.7-10.3,7s6.5-12.9,10.8-14.4c3.9-1.4,3.8,1.4-.5,7.4ZM157.2,84.7c-4.9-.9,4.6-11.2,12.9-13.8,5.6-1.8,7.6-.9,5.5,2.6-3.7,6.4-13.2,12.2-18.4,11.2ZM164.5,124.4c-5.9,3.1-17.7,2.3-22.6-1.4-2.4-1.8-1.5-2.8,3.4-3.9,11.2-2.4,26.2,1.7,19.2,5.2ZM185.7,103.5c-2.7,5.1-13.5,9.7-20.1,8.7-6-.9,4.3-8.6,14.5-10.9,5.5-1.2,7.2-.6,5.7,2.2h0ZM188.8,81.1c-1.2,6.6-12.1,16.5-18.1,16.5h-1.9l.2-1.6c.9-5.9,8.8-13.8,16.1-16.4,3.3-1.1,4-.9,3.6,1.4h0Z"/>
  <path class="st0" d="M137.5,165c-1.5.3-2.2.9-2.1,2.1,0,2,.2,2.1,10.5,2.1,19.1,0,34,2.8,47.1,8.4,4,1.8,4.9,1.8,5.6,0,1.6-3.6-14-9.2-32-11.6-6.5-.9-26.4-1.6-29.1-1"/>
  <path class="st0" d="M108.1,174.6c-18.3,1.8-20.3,2.2-20.3,4.6s.8,2.4,5.6,1.6c15.9-2.6,34.6-2.6,52.2-.1,7.6,1.1,8.1,1,8.1-1.2,0-3.2-29.6-6.2-45.6-4.8"/>
</svg>