<?xml version="1.0" encoding="UTF-8"?>
<svg id="Calque_1" xmlns="http://www.w3.org/2000/svg" version="1.1" viewBox="0 0 782.2 782.2">
  <!-- Generator: Adobe Illustrator 29.1.0, SVG Export Plug-In . SVG Version: 2.1.0 Build 142)  -->
  <defs>
    <style>
      .st0 {
        fill-rule: evenodd;
      }

      .st0, .st1 {
        fill: #fff;
      }
    </style>
  </defs>
  <path class="st0" d="M372.6,134.4c-84.9,2.5-166.1,63-196.2,146.4-9.4,26-12.6,44.6-12.7,72.8,0,22.5.2,24.6,4,44.5,3.3,16.8,15.6,53.6,19.2,57.2,1,1,33.9,2.3,46.9,1.8,27.2-1,47.9-4.8,100.3-18.5,2.6-.7,11.9-2.8,20.5-4.8,30.8-6.9,15.9-53.7-18.9-59.3-5.6-.9-8.7-.5-20.8,2.7-16.6,4.4-28.7-.5-16.2-6.6,11.4-5.6,29.4-7,42.6-3.5,10.4,2.8-2.6-15.4-16.6-23.1-6.8-3.8-8.6-5.4-7.5-7,1-1.6,4.7-.7,11.4,2.7,10.2,5.1,10.5,3.5,1.9-9.8-3.5-5.4-8.4-11.1-14.4-17-6.3-6.1-9-9.3-8.7-10.3,2.6-6.8,27.8,20.5,37.7,41,9.1,18.8,18,31.1,27.3,37.7,6.8,4.8,7,4.6,8.1-6.4,2.1-21.7-1.9-38.3-14-58.4-4.4-7.3-5.1-9.4-3.4-10.5,1.3-.8,3.6,1.5,9.3,9.4,2.7,3.8,5,6.7,5.1,6.6s1.1-4.2,2.1-8.9c8-37.1,8.6-42.7,6.5-56.3-2.6-16.1-2.5-14.8-.5-14.8,6.5,0,7.9,30.6,2.8,56.7-4.9,24.6-4,55.9,1.5,54.8,4.2-.8,13-21.9,11.4-27.3-4.1-14-1.4-40.6,4.1-40.6s8.7,24.6,4.1,39.3c-3.8,12.2-2,13.7,6,5.3,9.4-9.9,14.3-23.7,17.4-49.8,1-7.9,1.9-16.1,2.2-18.2.5-3.7,2.3-5.6,3.8-4,.8.9-.1,18.9-1.8,33.7-1.7,15.2,2.6,13.2,22-10.1,1.4-1.7,2.5-2.3,3.6-1.9,3.5,1.3,3.2,1.7-33.2,45.4-4.9,5.9-8.6,10.8-8.2,10.8,2.9,0,28-5.6,33.3-7.5,12.6-4.4,23.6-11.9,30.6-20.9,4-5.2,6.9-6.3,6.9-2.5,0,9.6-23.9,25.2-48.9,31.8-39.9,10.6-52.6,27.3-55.3,73.4-.8,13.7,1,15.9,11.9,13.5,28.5-6.2,76.2-6.2,107.6,0,20.5,4,56,16.7,64,22.7,1.6,1.2,3,2.1,3.2,1.9,4.6-4.9,15.6-42.8,18.8-64.6,19.2-130.8-89.1-253.3-220.8-249.5h0ZM232.3,269.4c12.5-5.7,59.7,11.8,56.2,20.9-2.4,6.1-26.7,5.4-39.8-1.2-14.5-7.4-22.5-17-16.4-19.7h0ZM236.3,341.7c-14.5-7.3-17.8-13.2-8.8-15.7,12-3.4,40.9,4.3,49.1,13.1,7.7,8.4-24.8,10.4-40.3,2.6h0ZM309.4,354.2c-10.7,9.4-32.8,16-41.8,12.5-8.1-3.1,9.4-15.8,26.9-19.6,16.1-3.3,23.1-.1,14.9,7.1ZM308.9,330c2.5,6.1-6.7,7.6-20.4,3.2-15.7-5-35.2-21.4-31.2-26.2,6.6-7.9,46.1,9.7,51.6,23ZM305.2,292.8c-11.6-5.3-30.3-48.3-24.2-55.7,3.6-4.3,14.7,8,22.8,25.3,7.3,15.7,8.2,33.5,1.4,30.4h0ZM315.9,257.2c-8-11.7-14-39.1-9.7-44.3,6.1-7.3,21.4,21.4,21.3,40-.1,15-3.4,16.2-11.6,4.3h0ZM346.8,320.4c-9.2-8.7-17.2-39-12.3-46.9,1.8-3,7.5,2.5,12.2,11.9,8.7,17.2,8.8,43.2.1,35h0ZM365.9,296.7c-9.3-10.3-15.9-40.8-10.8-50.3,2.4-4.4,6.5-1,12.1,10.3,8.9,17.8,7.9,50.1-1.3,40h0ZM342.2,218c-8.1-7.3-14.3-17.8-12.1-20.4,6.2-7.5,49.5,22.9,49.5,34.8s-24.3-2.6-37.4-14.4h0ZM384.6,225.8c-10-14.7-17.7-44-13-49.5,6.3-7.6,21.1,23,21.2,43.6,0,14.2-1.7,15.4-8.2,5.9ZM421.9,253.6c-1.4,20.3-7.6,22.1-12.8,3.8-2.4-8.4-3-32.1-1-36.7,4.8-10.7,15.1,13.9,13.8,32.9h0ZM446.8,238.9c-6.9,14.7-11.2,12.1-12.1-7.1-.6-14.7,2.6-28.7,8.6-36.9,10.4-14.1,13.4,23,3.5,44ZM454.9,262.5c-5.7-2.2,6.5-30.3,17.2-39.6s12.3-.3,3.4,18.5c-5.1,10.8-16.7,22.6-20.6,21.1ZM476.9,306c-7.8,10.9-17.2,17.4-20.6,14s13-25.8,21.6-28.8c7.9-2.7,7.5,2.9-1,14.8ZM473,272c-9.8-1.8,9.3-22.3,25.9-27.5,11.3-3.6,15.1-1.9,11,5.1-7.4,12.8-26.4,24.4-36.9,22.4ZM487.7,351.5c-11.9,6.1-35.4,4.6-45.1-2.8-4.7-3.6-3-5.6,6.7-7.7,22.5-4.9,52.5,3.4,38.4,10.5ZM530,309.6c-5.4,10.1-27,19.4-40.3,17.4-12-1.8,8.6-17.3,28.9-21.8,11-2.4,14.4-1.1,11.4,4.4h0ZM536.3,264.8c-2.5,13.2-24.2,33-36.1,33h-3.9l.5-3.2c1.9-11.8,17.5-27.6,32.3-32.7,6.6-2.3,8-1.8,7.2,2.9h0Z"/>
  <g>
    <path class="st1" d="M63.2,619.7h39.8c8.4,0,15.2-6.8,15.2-15.2s-6.8-15.2-15.2-15.2h-27.3c-2.9,0-5.3-2.4-5.3-5.3v-86.6c0-8.1-6.6-14.6-14.6-14.6s-14.6,6.6-14.6,14.6v100.2c-.2,12.2,9.8,22.1,22,22.1h0Z"/>
    <g>
      <path class="st1" d="M130,507.5h12.4c3.9,0,7.1-3.2,7.1-7.1,0-7.1-5.7-12.8-12.8-12.8s-13.7,5.7-13.7,12.8c0,3.9,3.1,7.1,7,7.1Z"/>
      <path class="st1" d="M136.2,513.8c-6.8,0-12.8,5.5-12.8,12.3v81.2c0,6.8,6,12.3,12.8,12.3s12.8-5.5,12.8-12.3v-81.2c0-6.8-6-12.3-12.8-12.3Z"/>
    </g>
    <path class="st1" d="M325.4,548.8c0-22.8-7.7-38-26.3-38s-16.4,3.5-21.7,12.6c-1.8,3.1-6.4,1.8-6.4-1.7v-26.7c0-6.9-5.7-12.5-12.7-12.3-6.7.2-12,5.9-12,12.6v112.1c0,6.8,5.5,12.3,12.3,12.3h1.1c6.8,0,12.3-5.5,12.3-12.3v-49.9c0-12.1,4.8-19.2,14.7-19.2s13.3,8.3,13.3,19.2v48.6c0,6.3,4.3,11.9,10.4,13.3,8,1.8,15-4.3,15-11.9v-58.7h0Z"/>
    <path class="st1" d="M340.1,536.1v47.2c0,20.1,8.3,36.4,28.1,36.4s6.7-.2,9.2-.7c6.2-1.1,10.6-6.8,10-13.1v-.7c-.6-6.3-6-11-12.3-11h-.1c-7.4,0-10.4-8.3-10.4-16.8v-41.3h9.8c7,0,12.7-5.7,12.7-12.7s-5.7-12.7-12.7-12.7h-9.8v-14.3c0-6.8-5.5-12.3-12.3-12.3s-12.3,5.5-12.3,12.3v14.3c-5.5,0-9.9,4.4-9.9,9.9v5.7c.1,5.4,4.5,9.8,10,9.8h0Z"/>
    <path class="st1" d="M211.4,648.6c20.8-2.4,30.2-15.6,30.2-30.2s-7.7-28.4-27.4-28.4-19.3,1.1-29.4,1.1-6.3-1.3-6.3-4.9.5-2.7,1.3-4.5c.7-1.4,2.3-2.1,3.8-1.8,3.7.9,7.7,1.3,12.2,1.3,23.1,0,36.2-8.7,36.2-26.1s-7-17-16-19.2l.2-.2c5.2.2,9.4.4,13.2.4,5.4,0,9.7-4.4,9.7-9.7v-6c0-5.4-4.4-9.7-9.7-9.7h-33c-23.4,0-37.5,13.2-37.5,36s5,23.5,14.2,29.2c2.3,1.4,2,4.7-.5,5.7h0c-8.5,2.9-12.3,9.2-12.3,15.2s1.6,8.3,5.1,10.9c2.3,1.7,2.1,5.3-.5,6.6-6.8,3.3-11,8.6-10.5,15,1,13.3,17.3,19.5,28.2,19.8,4,0,22.3.3,28.8-.5h0ZM196,538.6c5.6,0,10.8,1.1,10.8,8.9s-1.8,8.7-10.6,8.7-10.4-1.4-10.4-8.7,1.7-8.9,10.2-8.9ZM177.7,617.9c0-2,2.3-3.3,5.9-3.3h31.5c3,0,3,.9,3,2.4s-.3,2.6-2,3.3c-3.1,1.4-9.3,2-19,2s-14.1-.2-17.8-1.7c-1.3-.6-1.6-.8-1.6-2.7h0Z"/>
    <path class="st1" d="M701.8,561.1c-3.6-.5-7.9-1.7-12.1-2.9-8-2.4-13.5-9.8-13.5-18.1v-1.1c0-8.5,5.7-16,13.9-18.2,2.9-.8,5.7-1.4,7.7-1.4,15.6,0,24.4,7.8,29.5,24.3.7,2.3,3,3.6,5.3,3h0c2.5-.6,3.9-3.2,3.1-5.6-5.8-18.2-16.4-28.3-38.2-28.3s-34.6,12-34.6,27.7,10,25.1,35.3,28.8c5.2.8,11.4,2.4,16.8,4.1,7.1,2.2,12.5,8.1,13.5,15.5,1.2,8.6-3.5,16.8-11.3,20.1-4.7,2-10.1,3.8-14.2,3.8-20.7,0-30-10.1-35.1-22.6-.9-2.2-1.5-4.4-2.1-6.7-3.2-12.1-15.4-19.1-38-22.3-3.6-.5-7.9-1.6-12.1-2.9-8-2.4-13.5-9.8-13.5-18.1v-1.1c0-8.5,5.7-16,13.9-18.2,2.9-.8,5.7-1.4,7.7-1.4,15.6,0,24.4,7.8,29.5,24.3.7,2.3,3,3.6,5.3,3h0c2.5-.6,3.9-3.2,3.1-5.6-5.8-18.2-16.4-28.3-38.2-28.3s-28.6,8.4-33.2,20.3c-.7,1.8-3.1,2-4.1.3-7.6-12.9-21.4-20.6-40.3-20.6s-32.7,7.4-41.7,20.7c-1.2,1.8-4.1.9-4.1-1.3v-43.2c0-2.4-1.8-4.6-4.2-4.8-2.8-.3-5.1,1.9-5.1,4.6v71.2c0,12.8-16.5,18-23.9,7.5-3.2-4.6-6.4-9.1-9.2-13l-47.5-67.2c-1.8-2.6-5.1-3.8-8.3-2.8s-5.2,4-5.2,7.3v120.6c0,2.4,1.8,4.6,4.2,4.8,2.8.3,5.1-1.9,5.1-4.6v-74.2c0-12.8,16.5-18.1,23.9-7.5,1.8,2.6,3.6,5.1,5.2,7.3l54.4,76.5c1.3,1.9,3.7,2.8,6,2.3,2.7-.6,4.6-3.1,4.6-5.9v-11.9c0-2,2.5-2.7,3.6-1.1,8.7,13.5,23.5,21.2,43.1,21.2s33.3-7.6,40.9-21.6c7.1,13.9,19.4,21.8,41.3,21.8s25.6-5.6,32.5-14.7c1.1-1.5,3.4-1.5,4.6,0,7.5,9.4,19,14.7,36.8,14.7s37.5-12,37.5-29.3c.2-16.3-12-25.4-38.6-29.2h0ZM518.3,530.5c7.1-6.1,16.5-9.3,27.6-9.3s22.3,3.8,28.6,10.6c10,10.7,2.1,28.2-12.5,28.2h-32.6c-15.5,0-22.9-19.3-11.1-29.5ZM642.7,609.3c-4.5,1.9-9.5,3.5-13.4,3.5-26.5,0-35.4-21.4-37.8-29.2-.5-1.6-2-2.8-3.7-2.8h0c-1.6,0-3.1,1-3.6,2.6-.6,1.7-1.3,3.6-1.4,3.9-5,13.5-15,23.7-35.9,23.7s-27.4-6-34.6-16.4c-7.6-11.1.6-26.2,14.1-26.2h58.2c4.6,0,8.4-3.8,8.4-8.4h0c0-1.9,2.1-2.8,3.4-1.6,5.6,5.2,14.7,8.8,28,10.8,5.4.8,11.7,2.5,17.2,4.2,8.6,2.7,14.1,11,13.2,20.1-.8,7.2-5.6,13.1-12.1,15.8h0Z"/>
  </g>
  <path class="st0" d="M433.6,432.7c-3,.6-4.4,1.9-4.3,4.1,0,4,.4,4.1,21,4.2,38.2.1,68.1,5.5,94.3,16.9,8,3.5,9.7,3.5,11.3.1,3.2-7.1-27.9-18.4-64-23.3-13-1.8-52.9-3.1-58.3-2"/>
  <path class="st0" d="M374.8,451.8c-36.6,3.5-40.6,4.4-40.6,9.1s1.6,4.7,11.1,3.1c31.8-5.2,69.2-5.2,104.4-.2,15.1,2.2,16.3,2,16.3-2.5-.1-6.4-59.2-12.5-91.2-9.5"/>
</svg>
